<?xml version="1.0" encoding="UTF-8" standalone="no"?><!DOCTYPE svg PUBLIC "-//W3C//DTD SVG 1.1//EN" "http://www.w3.org/Graphics/SVG/1.1/DTD/svg11.dtd"><svg width="100%" height="100%" viewBox="0 0 217 198" version="1.1" xmlns="http://www.w3.org/2000/svg" xmlns:xlink="http://www.w3.org/1999/xlink" xml:space="preserve" xmlns:serif="http://www.serif.com/" style="fill-rule:evenodd;clip-rule:evenodd;stroke-linejoin:round;stroke-miterlimit:1.41421;"><rect id="Artboard2" x="0" y="0" width="216.193" height="197.366" style="fill:none;"/><g><path d="M214.392,95.646c1.085,0.531 1.773,1.633 1.773,2.84c0,1.208 -0.688,2.31 -1.773,2.841c-7.291,3.567 -19.893,9.732 -28.559,13.972c-1.754,0.858 -3.841,0.66 -5.403,-0.512c-1.562,-1.172 -2.335,-3.12 -2.001,-5.044c0.798,-3.717 1.477,-7.471 1.477,-11.257c0,-3.785 -0.679,-7.539 -1.465,-11.258c-0.332,-1.919 0.439,-3.863 1.997,-5.032c1.558,-1.169 3.639,-1.366 5.389,-0.51c8.672,4.228 21.274,10.393 28.565,13.96Z" style="fill:#42dcbc;"/><path d="M96.965,45.987c-0.798,-1.543 -0.503,-3.426 0.727,-4.652c1.231,-1.225 3.114,-1.512 4.654,-0.708c16.932,8.885 46.617,28.675 46.617,57.859c0,29.185 -29.685,48.975 -46.604,57.884c-1.55,0.808 -3.446,0.519 -4.684,-0.715c-1.239,-1.233 -1.535,-3.127 -0.733,-4.681c7.883,-15.81 12.304,-33.636 12.304,-52.488c0,-18.851 -4.421,-36.678 -12.281,-52.499Z" style="fill:#42dcbc;"/><path d="M0,12.142c0,-4.556 2.55,-8.728 6.604,-10.806c4.054,-2.078 8.93,-1.71 12.628,0.951c20.713,15.033 50.743,45.555 50.743,96.199c0,50.645 -30.03,81.167 -50.745,96.197c-3.697,2.661 -8.572,3.027 -12.625,0.95c-4.053,-2.076 -6.603,-6.248 -6.603,-10.802c-0.002,0 -0.002,-0.001 -0.002,-0.001c0,-4.706 1.608,-9.272 4.556,-12.941c16.055,-20.146 25.631,-45.665 25.631,-73.403c0,-27.737 -9.575,-53.255 -25.599,-73.427c-2.943,-3.662 -4.547,-8.219 -4.547,-12.917c-0.041,0 -0.041,0 -0.041,0Z" style="fill:#42dcbc;"/></g></svg>